<?xml version="1.0" encoding="UTF-8" standalone="no"?>
<!-- Created with Inkscape (http://www.inkscape.org/) -->

<svg
   version="1.1"
   id="svg1"
   width="225"
   height="225"
   viewBox="0 0 225 225"
   sodipodi:docname="logoEscobaRecogedor.svg"
   inkscape:version="1.3 (0e150ed6c4, 2023-07-21)"
   xmlns:inkscape="http://www.inkscape.org/namespaces/inkscape"
   xmlns:sodipodi="http://sodipodi.sourceforge.net/DTD/sodipodi-0.dtd"
   xmlns="http://www.w3.org/2000/svg"
   xmlns:svg="http://www.w3.org/2000/svg">
  <defs
     id="defs1" />
  <sodipodi:namedview
     id="namedview1"
     pagecolor="#ffffff"
     bordercolor="#000000"
     borderopacity="0.25"
     inkscape:showpageshadow="2"
     inkscape:pageopacity="0.0"
     inkscape:pagecheckerboard="0"
     inkscape:deskcolor="#d1d1d1"
     inkscape:zoom="3.4533333"
     inkscape:cx="40.830116"
     inkscape:cy="129.87452"
     inkscape:window-width="1920"
     inkscape:window-height="991"
     inkscape:window-x="-9"
     inkscape:window-y="-9"
     inkscape:window-maximized="1"
     inkscape:current-layer="g1" />
  <g
     inkscape:groupmode="layer"
     inkscape:label="Image"
     id="g1">
    <path
       style="fill:#000000"
       d="m 136,184.68686 c 0,-1.27222 -1.84348,-5.36966 -4.09662,-9.10542 -9.85614,-16.3417 -9.15797,-43.23004 1.08682,-41.85593 7.25703,0.97337 15.76193,-4.90543 17.58077,-12.15225 l 0.70395,-2.80475 8.62687,0.41245 c 13.19335,0.63078 22.52556,6.17294 29.91335,17.76477 1.94694,3.05485 4.20813,6.0517 5.02486,6.65966 2.36194,1.75821 0.65589,4.39461 -2.8438,4.39461 -2.68476,0 -2.94206,0.23264 -2.06657,1.86852 1.14568,2.14071 0.50443,3.13148 -2.02675,3.13148 -1.0563,0 -1.89195,0.88606 -2.08333,2.20901 -0.17575,1.21495 -1.21955,2.45245 -2.31955,2.75 -1.3224,0.3577 -2,1.38799 -2,3.04099 0,1.96012 -0.57188,2.56621 -2.64817,2.8066 -1.68386,0.19495 -2.8456,1.06156 -3.19034,2.37988 -0.35957,1.37499 -1.06748,1.87171 -2.10183,1.47479 -0.9583,-0.36774 -1.55966,-0.055 -1.55966,0.8111 0,2.08235 -1.8789,2.87302 -3.5438,1.49128 -1.17091,-0.97177 -1.4562,-0.89757 -1.4562,0.37872 0,1.66658 -3.75649,4.23447 -4.74639,3.24458 -0.3163,-0.31631 -1.09062,0.43474 -1.72071,1.66898 -0.85743,1.67955 -1.94901,2.20698 -4.33926,2.09662 -2.52124,-0.1164 -3.19364,0.25205 -3.19364,1.75 0,1.33466 -0.70978,1.89745 -2.39301,1.89745 -1.31616,0 -2.65203,0.675 -2.96862,1.5 -0.66782,1.74032 -3.75037,1.988 -5.31159,0.42678 -0.76428,-0.76428 -1.25912,-0.3325 -1.71905,1.5 C 139.75197,187.83643 136,188.04821 136,184.68686 Z M 137,174 c 0,-1.33333 0.66667,-2 2,-2 2.64853,0 2.52221,-1.81375 -0.5033,-7.22698 -2.15461,-3.85502 -3.7809,-9.06254 -6.87771,-22.02302 -1.66515,-6.96881 -4.61758,0.58677 -4.59145,11.75 0.0169,7.22691 1.75004,12.57016 6.02418,18.57264 C 135.47698,176.4786 137,176.83633 137,174 Z m 6.31958,-12.60682 c -0.0992,-1.04035 0.46327,-2.25178 1.25,-2.69206 2.95055,-1.65121 -4.03543,-20.20112 -7.60783,-20.20112 -2.78938,0 -1.83177,13.20146 1.44317,19.89519 2.65894,5.43468 5.30079,7.04623 4.91466,2.99799 z m 5.75126,-16.1976 c -2.64215,-5.10076 -4.78492,-7.81483 -5.55884,-7.04091 -0.62677,0.62676 2.67587,8.02909 4.72232,10.58432 2.0628,2.57564 2.6712,-0.001 0.83652,-3.54341 z M 70.253708,169.7038 c -35.558859,-10.15113 -39.246641,-11.40016 -39.25,-13.29371 -0.0035,-1.9655 2.422276,-1.40495 40.746292,9.41573 46.66838,13.17669 41.46669,11.44592 40.66655,13.53105 -0.86904,2.26468 1.42101,2.78899 -42.162842,-9.65307 z m 41.613072,5.62936 c -1.34466,-0.358 -1.48139,-1.08842 -0.77386,-4.134 C 121.5365,126.24454 55.690409,105.60541 37.99932,148.28835 35.591838,154.09683 32,155.43158 32,150.51773 32,134.32526 58.453008,115.13245 77.659467,117.3898 l 5.248655,0.61687 0.53338,-3.25333 c 5.210121,-31.779013 9.675023,-40.169122 17.923638,-33.68076 4.12255,3.2428 0.90548,17.478424 -7.903837,34.9747 l -2.28954,4.54727 4.386758,2.32717 c 11.426709,6.06186 20.458879,20.6654 21.251679,34.3605 0.43612,7.53375 -1.16535,18.85259 -2.63192,18.60178 -0.37305,-0.0638 -1.41323,-0.31168 -2.3115,-0.55084 z M 99.668129,87.422459 C 100.7159,84.692015 97.374391,82.197037 95.363256,84.208173 93.318774,86.252655 94.257185,89 97,89 c 1.134523,0 2.335181,-0.709894 2.668129,-1.577541 z M 72.564041,164.11556 c -37.698989,-10.81038 -35.921169,-9.78937 -31.497432,-18.08915 19.695751,-36.95302 74.732751,-18.18495 68.502701,23.35998 -0.85135,5.67716 3.17214,6.25025 -37.005269,-5.27083 z m 58.013639,-33.98987 c -0.29719,-0.48087 -0.84362,-4.13732 -1.21428,-8.12545 L 128.68948,114.7491 102.31173,71.124549 C 74.729429,25.507869 73.301544,22.5 79.228854,22.5 c 2.527823,0 4.711037,3.278238 29.635736,44.5 26.57336,43.9484 26.97217,44.53719 32.17327,47.5 6.79221,3.86919 7.94322,5.65997 5.93643,9.23612 -3.05502,5.44413 -14.27798,9.81759 -16.39661,6.38957 z"
       id="path1" />
  </g>
</svg>
